<?xml version="1.0" encoding="utf-8"?>
<!-- Generator: Adobe Illustrator 25.2.3, SVG Export Plug-In . SVG Version: 6.00 Build 0)  -->
<svg version="1.1" xmlns="http://www.w3.org/2000/svg" xmlns:xlink="http://www.w3.org/1999/xlink" x="0px" y="0px"
	 viewBox="0 0 792 612" style="enable-background:new 0 0 792 612;" xml:space="preserve">
<style type="text/css">
	.st0{fill:#13284C;}
	.st1{font-family:'CiscoSansTT-Bold';}
	.st2{font-size:80.7688px;}
</style>
<g id="CheatSheet">
	<path class="st0" d="M171.3,319.7c0,3.7,3,6.6,6.7,6.6h84.1c3.7,0,6.7-3,6.7-6.6c0-3.6-3-6.6-6.7-6.6h-84.1
		C174.2,313.1,171.3,316,171.3,319.7"/>
	<path class="st0" d="M181.3,296.1c0,3.7,3,6.6,6.7,6.6h64.1c3.7,0,6.7-3,6.7-6.6c0-3.6-3-6.6-6.7-6.6h-64.1
		C184.3,289.5,181.3,292.4,181.3,296.1"/>
	<path class="st0" d="M191.3,272.5c0,3.7,3,6.6,6.7,6.6H242c3.7,0,6.7-3,6.7-6.6c0-3.6-3-6.6-6.7-6.6h-44.1
		C194.3,265.9,191.3,268.8,191.3,272.5"/>
</g>
<g id="Layer_1">
	<text transform="matrix(1 0 0 1 279.0522 326.3258)" class="st0 st1 st2">Stacker</text>
</g>
</svg>
